<?xml version="1.0" encoding="UTF-8" standalone="no"?>
<!-- Created with Inkscape (http://www.inkscape.org/) -->

<svg
   version="1.1"
   id="svg1"
   width="368.16"
   height="190.76312"
   viewBox="0 0 368.16 190.76312"
   xmlns="http://www.w3.org/2000/svg"
   xmlns:svg="http://www.w3.org/2000/svg">
  <defs
     id="defs1" />
  <g
     id="g1"
     transform="translate(-7.1099501,-46.301324)">
    <g
       id="g21"
       transform="translate(-414.29736,-5.9319272)">
      <path
         style="fill:#00acd4;fill-opacity:1"
         d="m 596.56474,87.51325 0.17748,-1.52 0.20741,-3.49964 0.20741,-3.49965 -0.75486,0.49225 -0.75486,0.49224 -3.04,1.93223 -3.04,1.93223 -0.64,0.18483 -0.64,0.18483 -2.37991,-4.03015 -2.37991,-4.03014 0.61991,-0.45347 0.61991,-0.45346 3.90512,-2.14492 3.90513,-2.14493 -0.22513,-0.20939 -0.22512,-0.20939 -4.16,-2.28844 -4.16,-2.28844 -0.27682,-0.27611 -0.27682,-0.27612 2.35819,-3.9155 2.35819,-3.9155 0.67868,-0.10358 0.67867,-0.10357 3.74103,2.39189 3.74102,2.3919 h 0.15184 0.15184 l -0.22128,-4.96 -0.22127,-4.96 h 5.20243 5.20243 l -0.23381,5.30061 -0.23382,5.30061 3.9872,-2.54237 3.9872,-2.54236 0.615,-0.1952 0.61499,-0.19519 2.31756,3.94829 2.31755,3.94829 -0.005,0.28866 -0.005,0.28866 -4.63303,2.4 -4.63303,2.4 0.002,0.16 0.002,0.16 4.24143,2.33505 4.24144,2.33505 0.44732,0.27646 0.44732,0.27646 -2.37279,4.02166 -2.37278,4.02165 -0.65687,0.007 -0.65687,0.007 -3.50313,-2.28056 -3.50313,-2.28056 -0.45108,-0.17328 -0.45109,-0.17328 0.22001,4.65618 0.22,4.65618 -0.51509,0.19766 -0.5151,0.19766 h -4.80385 -4.80386 z"
         id="path21" />
      <path
         style="fill:#ffc60b;fill-opacity:1"
         d="m 526.83286,171.19097 -0.15437,-0.40227 0.0844,-10.71773 0.0844,-10.71772 10,-0.0846 10,-0.0846 v 11.00723 11.00724 l -0.72,0.19295 -0.72,0.19296 -9.21005,0.004 -9.21004,0.004 z"
         id="path20" />
      <path
         style="fill:#464c4b;fill-opacity:1"
         d="m 734.36732,147.95422 v -29.48097 h 18.56 18.56 v 7.36 7.36 h -10.08 -10.08 v 5.28 5.28 h 9.6 9.6 v 7.2 7.2 h -9.6 -9.6 v 5.44 5.44 h 10.08 10.08 v 3.6492 3.64921 l -3.28,0.18538 -3.28,0.18539 -10.56,0.17017 -10.56,0.17017 -4.72,0.19621 -4.72,0.19621 z"
         id="path19" />
      <path
         id="path18"
         style="fill:#464c4b;fill-opacity:1"
         d="m 679.32812,118.43359 v 31.02149 31.01953 l 1.35938,-0.12891 1.35938,-0.12695 12.16015,-0.77734 12.16016,-0.77735 5.12109,-0.19726 5.11914,-0.19727 2.6582,-0.30859 2.65821,-0.31055 1.68164,-0.62891 1.68164,-0.6289 1.07031,-1.03906 1.06836,-1.04102 0.57813,-1.29688 0.57812,-1.29882 0.37305,-2.38086 0.37304,-2.38282 -0.1875,-3.03906 -0.1875,-3.04101 -0.52929,-1.75977 -0.52735,-1.75976 -0.79687,-1.57227 -0.79492,-1.57031 -1.51172,-1.46875 -1.51367,-1.46875 -1.89649,-0.86719 -1.89453,-0.86914 -1.55078,-0.41211 -1.54883,-0.41211 1.45313,-1.02148 1.45312,-1.02149 1.11914,-1.53906 1.11914,-1.53711 0.72852,-2.24023 0.72851,-2.24024 -0.0117,-3.67969 -0.0137,-3.67968 -0.54492,-2.04688 -0.54297,-2.04687 -0.86133,-1.58204 -0.86132,-1.58203 -1.69336,-1.54882 -1.69336,-1.54688 -1.67969,-0.81445 -1.67969,-0.8125 -1.91992,-0.55274 -1.92187,-0.55273 -15.11914,-0.11719 z m 17.2793,13.06446 2.64063,0.20703 2.63867,0.20703 1.1914,0.33398 1.18946,0.33203 1.01367,0.85157 1.01367,0.85351 0.43555,1.04492 0.4375,1.04493 v 1.46093 1.45899 l -0.44727,1.06836 -0.44531,1.06836 -1.07422,0.8125 -1.07422,0.8125 -1.27929,0.33398 -1.28125,0.33399 -2.47852,0.21875 -2.48047,0.2207 v -6.33203 z m 0,25.375 3.91992,0.006 3.91993,0.004 1.83789,0.4336 1.83984,0.43164 1.10352,0.75781 1.10546,0.75586 0.67383,1.19922 0.67383,1.19922 0.008,1.89257 0.01,1.89258 -0.47852,0.91407 -0.47656,0.91406 -0.91211,0.86718 -0.91406,0.86719 -1.43555,0.50781 -1.43554,0.50782 -3.03907,0.29687 -3.04101,0.29688 -1.67969,0.008 -1.67969,0.008 v -6.8789 z" />
      <path
         style="fill:#464c4b;fill-opacity:1"
         d="m 651.48732,150.61013 v -32.13688 h 8.48157 8.48157 l -0.0816,31.44 -0.0816,31.44 -6.72,0.5333 -6.72,0.53331 -1.68,0.16357 -1.68,0.16357 z"
         id="path15" />
      <path
         style="fill:#464c4b;fill-opacity:1"
         d="m 606.24072,183.48729 -0.16437,-0.26596 -12.36658,-29.41404 -12.36657,-29.41404 -1.23246,-2.96 -1.23245,-2.96 h 9.39539 9.39539 l 7.58934,19.12 7.58935,19.12 0.21719,0.24141 0.21719,0.24141 7.70924,-19.28141 7.70925,-19.28141 9.35195,-0.0849 9.35194,-0.0849 -0.15678,0.59954 -0.15678,0.59955 -13.68982,32.04535 -13.68981,32.04534 h -6.65312 -6.65312 z"
         id="path14" />
      <path
         style="fill:#ffc60b;fill-opacity:1"
         d="m 503.00732,200.3656 -3.04001,-1.63447 -3.04,-2.02527 -3.04,-2.02528 -2.57071,-2.07076 -2.57072,-2.07077 -3.1439,-3.1286 -3.1439,-3.12861 -2.33011,-2.9043 -2.33012,-2.90429 -2.29162,-3.52 -2.29161,-3.52 -1.87101,-3.84 -1.87101,-3.84 -1.19274,-3.2 -1.19274,-3.2 -1.06428,-4.20717 -1.06428,-4.20716 -0.55839,-3.79284 -0.55838,-3.79283 v -6.56 -6.56 l 0.55838,-3.79284 0.55839,-3.79284 1.06428,-4.20716 1.06428,-4.20716 1.19274,-3.2 1.19274,-3.2 1.87101,-3.84 1.87101,-3.84 2.29161,-3.52 2.29162,-3.52 2.33012,-2.9043 2.33011,-2.9043 3.1439,-3.1286 3.1439,-3.12861 2.57072,-2.07178 2.57071,-2.07178 3.11193,-2.06498 3.11192,-2.06498 3.60808,-1.89226 3.60808,-1.89227 3.68849,-1.43968 3.68849,-1.43968 4.31151,-1.11988 4.31151,-1.11987 3.52,-0.57852 3.52,-0.57851 7.68,0.0163 7.68,0.0162 3.32836,0.54255 3.32836,0.54256 3.83924,0.97379 3.83925,0.97379 3.07239,1.14883 3.0724,1.14883 1.68,0.74097 1.68,0.74096 v 18.96255 18.96255 l -1.2,-1.13169 -1.2,-1.1317 -9.6,-8.912 -9.6,-8.91199 -0.84843,-0.77088 -0.84843,-0.77087 -24.93268,23.30962 -24.93267,23.30963 6.9811,0.0861 6.98111,0.0861 v 35.31754 35.31755 l -1.52,0.21929 -1.52,0.2193 -0.64,0.14044 -0.64,0.14045 z"
         id="path13" />
      <path
         style="fill:#92c83e;fill-opacity:1"
         d="m 421.40731,242.71949 v -0.27688 l 9.59423,-11.82468 9.59423,-11.82469 0.72577,-0.24383 0.72577,-0.24383 35.84,-5.90399 35.84001,-5.904 9.12,-1.44531 9.12,-1.44531 11.52,-1.75183 11.52,-1.75183 12.48,-1.76237 12.48,-1.76237 11.36,-1.44635 11.36,-1.44635 8.16,-0.9551 8.16,-0.9551 9.12,-0.96881 9.12,-0.96882 12,-1.11503 12,-1.11503 12.48,-0.95895 12.48,-0.95894 10.4,-0.64548 10.4,-0.64548 9.44,-0.47352 9.44,-0.47352 8.32,-0.32961 8.32,-0.3296 10.72,-0.30748 10.72,-0.30748 12.8,-0.15334 12.80001,-0.15334 -2.24,0.2907 -2.24,0.29071 -9.28001,0.66962 -9.28,0.66962 -12.16,1.10889 -12.16,1.1089 -10.4,1.11855 -10.4,1.11856 -9.6,1.1321 -9.6,1.13209 -13.37977,1.74741 -13.37977,1.74741 -11.26023,1.60545 -11.26023,1.60546 -13.6,2.08247 -13.6,2.08246 -13.44,2.2065 -13.44,2.20649 -11.2,1.954 -11.2,1.954 -10.56,1.92233 -10.56,1.92233 -10.88,2.075 -10.88,2.07499 -8.96,1.77255 -8.96,1.77256 -13.76,2.86452 -13.76001,2.86452 -12.16,2.6969 -12.16,2.6969 -8.88304,2.09183 -8.88304,2.09184 -6.47696,1.62498 -6.47696,1.62498 -5.28,1.42723 -5.28,1.42723 -0.56,0.17153 -0.56,0.17152 z"
         id="path12" />
    </g>
  </g>
</svg>
